<?xml version="1.0" encoding="utf-8"?>
<!-- Generator: Adobe Illustrator 26.3.1, SVG Export Plug-In . SVG Version: 6.00 Build 0)  -->
<svg version="1.1" id="レイヤー_1" xmlns="http://www.w3.org/2000/svg" xmlns:xlink="http://www.w3.org/1999/xlink" x="0px"
	 y="0px" viewBox="0 0 790.5 263.4" style="enable-background:new 0 0 790.5 263.4;" xml:space="preserve">
<style type="text/css">
	.st0{fill:#000;}
	@media (prefers-color-scheme: dark) {
	.st0{
		fill: #fff;
	}
</style>
<g>
	<path class="st0" d="M0,204.3h48.6V255H0V204.3z"/>
	<path class="st0" d="M146.3,6h41.4v35.3c9.9-12.3,18.9-21.2,27-26.7c13.8-9.4,29.4-14.2,47-14.2c19.8,0,35.8,4.9,47.9,14.6
		c6.8,5.6,13,13.8,18.6,24.6c9.3-13.3,20.2-23.2,32.8-29.5c12.6-6.5,26.7-9.8,42.3-9.8c33.5,0,56.3,12.1,68.3,36.2
		c6.5,13,9.8,30.5,9.8,52.5V255h-43.5V82.1c0-16.6-4.2-28-12.6-34.2c-8.2-6.2-18.3-9.3-30.2-9.3c-16.4,0-30.6,5.5-42.5,16.5
		c-11.8,11-17.7,29.3-17.7,55.1V255h-42.5V92.5c0-16.9-2-29.2-6-37c-6.4-11.6-18.2-17.4-35.6-17.4c-15.8,0-30.2,6.1-43.2,18.4
		c-12.9,12.3-19.3,34.4-19.3,66.5v132h-41.8V6z"/>
	<path class="st0" d="M598.8,188.7c0,12.1,4.4,21.6,13.3,28.6c8.8,7,19.3,10.5,31.4,10.5c14.7,0,29-3.4,42.8-10.2
		c23.2-11.3,34.9-29.8,34.9-55.6v-33.7c-5.1,3.3-11.7,6-19.8,8.1c-8.1,2.2-16,3.7-23.7,4.6l-25.3,3.2c-15.2,2-26.6,5.2-34.2,9.5
		C605.2,161.2,598.8,172.8,598.8,188.7z M700.1,104.1c9.6-1.2,16-5.3,19.3-12.1c1.9-3.7,2.8-9.1,2.8-16c0-14.3-5.1-24.6-15.3-30.9
		c-10.1-6.5-24.6-9.8-43.5-9.8c-21.9,0-37.3,5.9-46.5,17.7c-5.1,6.5-8.4,16.2-10,29.1h-39.1c0.8-30.7,10.7-52,29.8-63.9
		C616.8,6,639.1,0,664.3,0c29.3,0,53.1,5.6,71.4,16.7c18.1,11.2,27.2,28.5,27.2,52.1v143.4c0,4.3,0.9,7.8,2.6,10.5
		c1.9,2.6,5.7,4,11.4,4c1.9,0,4-0.1,6.3-0.2c2.3-0.3,4.8-0.7,7.4-1.2v30.9c-6.5,1.8-11.5,3-14.9,3.5c-3.4,0.5-8.1,0.7-13.9,0.7
		c-14.4,0-24.9-5.1-31.4-15.4c-3.4-5.4-5.8-13.1-7.2-23c-8.5,11.2-20.8,20.8-36.7,29c-16,8.2-33.6,12.3-52.8,12.3
		c-23.1,0-42-7-56.7-20.9c-14.6-14.1-21.9-31.7-21.9-52.8c0-23.1,7.2-41,21.6-53.7c14.4-12.7,33.3-20.5,56.7-23.5L700.1,104.1z"/>
</g>
</svg>
